<?xml version="1.0" standalone="no"?>
<!DOCTYPE svg PUBLIC "-//W3C//DTD SVG 20010904//EN"
 "http://www.w3.org/TR/2001/REC-SVG-20010904/DTD/svg10.dtd">
<svg version="1.0" xmlns="http://www.w3.org/2000/svg"
 width="512.000000pt" height="512.000000pt" viewBox="0 0 512.000000 512.000000"
 preserveAspectRatio="xMidYMid meet">
<metadata>
Created by potrace 1.14, written by Peter Selinger 2001-2017
</metadata>
<g transform="translate(0.000000,512.000000) scale(0.100000,-0.100000)"
fill="#000000" stroke="none">
<path d="M655 4258 c-22 -5 -55 -16 -74 -24 -39 -19 -111 -88 -111 -108 0 -8
-6 -19 -14 -25 -8 -7 -17 -35 -21 -63 -4 -28 -7 -610 -7 -1292 l0 -1241 22
-57 c25 -67 100 -141 161 -159 22 -7 37 -14 35 -16 -2 -2 -35 -6 -72 -7 -75
-3 -128 -26 -175 -75 -40 -42 -93 -135 -105 -183 -1 -5 -3 -10 -4 -13 -1 -3
-3 -8 -4 -12 -1 -5 -13 -33 -26 -63 -14 -30 -24 -58 -22 -63 1 -4 -3 -7 -10
-7 -6 0 -9 -3 -5 -6 3 -4 0 -19 -8 -34 -8 -15 -11 -30 -8 -34 4 -3 1 -6 -5 -6
-7 0 -12 -9 -12 -19 0 -11 -6 -26 -13 -33 -6 -7 -14 -22 -15 -33 -2 -11 -7
-24 -12 -30 -4 -5 -11 -25 -15 -43 -3 -17 -11 -32 -16 -32 -6 0 -8 -4 -4 -9 3
-5 1 -12 -5 -16 -5 -3 -10 -12 -10 -19 0 -8 -11 -39 -25 -70 -14 -31 -24 -57
-22 -59 1 -2 -6 -15 -16 -30 -9 -15 -15 -27 -12 -27 3 0 -2 -14 -10 -31 -43
-82 28 -229 139 -287 l51 -27 2335 -3 c1824 -2 2344 0 2375 9 138 43 238 205
192 311 -8 18 -24 53 -35 78 -10 25 -23 56 -27 70 -4 14 -11 30 -15 35 -4 6
-11 25 -15 43 -3 17 -11 32 -16 32 -5 0 -9 7 -9 15 0 9 -9 35 -20 57 -11 23
-20 45 -20 49 0 3 -8 24 -17 45 -9 22 -17 41 -18 44 0 3 -6 15 -13 28 -7 12
-10 22 -6 22 4 0 -1 9 -11 20 -10 11 -16 20 -12 20 6 0 -50 135 -84 200 -71
138 -132 182 -257 186 -74 2 -102 8 -56 12 82 7 188 114 209 211 4 18 7 597 7
1287 0 1353 2 1288 -54 1369 -29 42 -107 101 -148 112 -38 10 -3789 11 -3835
1z"/>
</g>
</svg>
