<?xml version="1.0" standalone="no"?>
<!DOCTYPE svg PUBLIC "-//W3C//DTD SVG 20010904//EN"
 "http://www.w3.org/TR/2001/REC-SVG-20010904/DTD/svg10.dtd">
<svg version="1.0" xmlns="http://www.w3.org/2000/svg"
 width="512.000000pt" height="512.000000pt" viewBox="0 0 512.000000 512.000000"
 preserveAspectRatio="xMidYMid meet">
<metadata>
Created by potrace 1.14, written by Peter Selinger 2001-2017
</metadata>
<g transform="translate(0.000000,512.000000) scale(0.100000,-0.100000)"
fill="#000000" stroke="none">
<path d="M2234 4322 c2 -4 -14 -8 -35 -9 -22 0 -45 -6 -53 -12 -7 -6 -16 -8
-19 -4 -4 3 -7 1 -7 -5 0 -7 -5 -12 -11 -12 -7 0 -22 -11 -34 -24 -39 -42 -60
-48 -89 -25 -14 11 -26 18 -26 15 0 -3 -17 2 -37 10 -51 22 -186 19 -290 -6
-87 -20 -243 -86 -243 -102 0 -5 -4 -6 -10 -3 -5 3 -10 2 -10 -4 0 -5 -8 -12
-19 -16 -10 -3 -28 -13 -39 -23 -11 -9 -37 -30 -58 -47 -59 -48 -194 -189
-192 -201 0 -3 -9 -16 -19 -28 -11 -12 -28 -38 -39 -57 -10 -18 -25 -40 -32
-47 -11 -12 -14 -21 -11 -38 0 -4 -4 -10 -9 -13 -11 -7 -46 -82 -56 -121 -4
-14 -11 -34 -16 -45 -22 -53 -29 -85 -17 -85 9 0 9 -2 0 -8 -7 -4 -15 -32 -19
-62 -8 -66 -11 -321 -4 -335 6 -12 8 -28 15 -84 5 -52 15 -84 27 -92 4 -3 10
-28 13 -55 2 -27 5 -49 5 -49 1 0 3 -11 6 -24 5 -26 68 -94 78 -84 3 4 6 1 6
-5 0 -7 7 -12 15 -12 22 0 31 -48 12 -63 -9 -7 -20 -23 -25 -37 -10 -27 -8
-109 3 -150 19 -71 26 -111 29 -172 1 -37 8 -73 14 -80 5 -7 11 -17 12 -23 5
-35 25 -95 31 -95 5 0 6 -9 4 -20 -2 -11 1 -20 6 -20 6 0 8 -4 5 -9 -7 -10 22
-25 41 -22 7 1 23 -5 36 -13 18 -12 31 -13 57 -6 32 9 44 7 46 -8 1 -7 27 -70
47 -112 6 -14 17 -32 23 -40 7 -8 13 -19 14 -25 3 -17 106 -168 139 -203 17
-17 29 -32 26 -32 -6 0 104 -104 140 -132 17 -12 36 -28 43 -35 6 -6 21 -15
32 -18 11 -3 20 -11 20 -16 0 -6 4 -8 9 -5 5 3 12 -1 15 -9 3 -8 9 -14 13 -13
4 1 27 -10 51 -25 23 -15 47 -25 52 -22 6 4 10 0 10 -9 0 -8 13 -17 31 -21 17
-4 33 -13 36 -21 3 -8 9 -11 14 -8 6 3 16 1 23 -5 7 -6 21 -12 32 -14 10 -2
28 -7 39 -11 11 -4 29 -11 40 -15 11 -4 30 -6 43 -5 12 1 22 -2 22 -5 0 -9
144 -6 189 3 18 4 49 13 67 21 19 8 36 13 38 12 2 -1 13 7 25 17 12 11 21 16
21 13 0 -4 23 7 50 23 28 17 53 30 55 30 5 0 37 25 59 46 6 6 16 12 21 13 29
8 231 199 285 270 25 32 52 67 68 86 9 11 12 20 12 35 0 6 7 10 15 10 9 0 14
-9 14 -22 -1 -13 4 -36 10 -53 7 -16 13 -32 13 -35 0 -3 9 -11 19 -18 19 -13
28 -38 10 -27 -12 7 -61 -15 -61 -27 0 -5 -6 -6 -12 -2 -7 4 -10 4 -6 0 4 -5
-2 -24 -13 -43 -19 -34 -23 -99 -7 -109 4 -3 8 -14 8 -25 0 -10 4 -19 9 -19 4
0 20 -11 35 -25 17 -16 22 -25 13 -25 -21 0 -65 -61 -61 -84 1 -11 -1 -27 -6
-36 -5 -10 -6 -21 -2 -25 4 -3 7 -10 7 -13 2 -25 49 -85 59 -75 3 4 6 1 6 -5
0 -7 7 -12 15 -12 20 0 19 -6 -5 -40 -11 -15 -17 -30 -13 -34 3 -3 2 -6 -3 -6
-9 0 -12 -53 -4 -72 1 -5 3 -11 4 -15 4 -19 32 -53 43 -53 7 0 13 -4 13 -10 0
-5 7 -10 15 -10 8 0 15 -5 15 -12 0 -6 3 -9 6 -5 4 3 25 -4 48 -15 22 -12 46
-22 51 -23 6 0 26 -6 45 -12 39 -14 86 -24 113 -26 9 -1 17 -4 17 -7 0 -3 17
-5 38 -5 20 1 45 -3 55 -7 9 -5 17 -5 17 0 0 4 25 8 55 7 30 0 55 2 55 6 0 4
17 6 38 5 20 -2 43 2 50 7 6 5 12 7 12 4 0 -2 28 2 63 10 34 8 70 14 80 14 10
0 15 5 11 11 -4 7 -2 8 4 4 7 -4 18 -4 25 1 6 4 14 8 17 8 21 3 80 31 80 39 0
5 3 7 6 3 4 -3 21 5 39 18 17 14 37 25 44 25 7 0 9 4 6 10 -3 5 -1 10 6 10 28
0 168 178 152 194 -4 3 -2 6 4 6 14 0 46 104 47 152 1 21 4 38 7 38 3 0 5 12
3 28 -2 15 -6 43 -9 62 -5 40 -7 50 -25 108 -7 23 -17 42 -22 42 -4 0 -8 8 -8
18 -1 15 -61 116 -89 148 -5 7 -7 15 -4 18 4 3 1 6 -5 6 -6 0 -13 8 -17 19 -3
10 -14 29 -25 41 -11 12 -17 27 -14 31 3 5 1 9 -3 9 -8 0 -42 61 -61 111 -17
44 -2 206 20 220 5 3 8 8 6 10 -5 7 36 99 45 99 4 0 5 5 2 10 -4 6 -1 17 5 25
7 8 12 35 13 60 1 69 -46 102 -170 119 -13 2 -23 0 -23 -4 0 -5 -8 -7 -17 -5
-10 1 -30 -6 -45 -17 -16 -11 -28 -16 -28 -12 0 5 -19 -13 -42 -38 -60 -66
-65 -72 -72 -96 -4 -12 -12 -22 -18 -22 -6 0 -8 -3 -5 -6 3 -4 2 -14 -3 -23
-19 -37 -28 -166 -16 -255 2 -16 -1 -45 -7 -65 -6 -20 -10 -39 -9 -42 0 -4
-22 -19 -49 -34 -54 -29 -119 -36 -145 -14 -8 6 -17 9 -21 6 -3 -4 -12 -2 -19
3 -6 6 -16 10 -20 9 -5 -1 -25 1 -44 5 -126 25 -264 22 -282 -6 -4 -7 -8 -9
-8 -4 0 5 -8 2 -17 -5 -16 -12 -17 -12 -6 1 10 14 131 300 137 325 1 6 12 26
25 46 25 42 68 64 108 56 22 -4 34 3 65 36 21 23 37 48 36 57 -1 8 1 20 4 26
14 21 31 124 32 192 0 23 3 42 7 42 3 0 6 7 6 15 0 8 -4 15 -8 15 -5 0 -6 6
-3 13 7 19 11 97 4 97 -3 0 -6 15 -7 33 -2 47 -20 111 -32 115 -6 2 -11 9 -11
16 0 6 -13 20 -30 29 -24 15 -29 24 -28 52 1 19 6 35 11 35 5 0 4 6 -2 14 -7
8 -8 17 -4 19 5 3 10 22 11 43 2 20 6 42 10 48 8 13 12 31 16 72 1 16 6 35 9
41 4 7 3 15 -3 18 -8 5 -8 11 -1 19 6 7 8 16 4 19 -3 4 -7 26 -9 49 -2 24 -5
59 -9 78 -3 19 -7 46 -10 60 -2 14 -6 34 -9 45 -3 11 -10 36 -15 55 -5 19 -18
56 -29 83 -12 26 -18 47 -14 47 4 0 2 4 -3 8 -6 4 -22 28 -35 55 -14 26 -28
47 -32 47 -5 0 -8 6 -8 13 0 24 -195 237 -217 237 -6 0 -13 7 -17 15 -3 8 -11
15 -18 15 -8 0 -20 9 -28 20 -8 11 -18 20 -23 20 -5 0 -22 9 -38 21 -30 21
-200 112 -209 112 -5 -1 -41 12 -70 24 -18 7 -40 14 -60 17 -8 1 -33 8 -54 16
-22 7 -56 13 -75 14 -20 1 -40 4 -46 7 -15 9 -247 10 -241 1z"/>
</g>
</svg>
